PathFileType	4	(X/Y/Z)	C:\Users\WrightLab\Desktop\Jo\P5V33.trc
DataRate	CameraRate	NumFrames	NumMarkers	Units	OrigDataRate	OrigDataStartFrame	OrigNumFrames
100.00	100.00	      21	19	mm	100.00	267	      1066
Frame#	Time	Headset_Front			Headset_Back			Headset_Left			Headset_Right			Left_Shoulder			Right_Shoulder			Sternum			C7			Left Elbow			Right Elbow			Left Wrist			Right Wrist			Left ASIS			Right ASIS			S2			Left Knee			Right Knee			Left Ankle			Right Ankle			
		X1	Y1	Z1	X2	Y2	Z2	X3	Y3	Z3	X4	Y4	Z4	X5	Y5	Z5	X6	Y6	Z6	X7	Y7	Z7	X8	Y8	Z8	X9	Y9	Z9	X10	Y10	Z10	X11	Y11	Z11	X12	Y12	Z12	X13	Y13	Z13	X14	Y14	Z14	X15	Y15	Z15	X16	Y16	Z16	X17	Y17	Z17	X18	Y18	Z18	X19	Y19	Z19	

267	2.660				-80.60015	1492.87708	-1148.89441				-42.29012	1288.90576	-921.95172	-358.92413	1558.92590	-876.72620	-331.13989	1497.50525	-1170.15552										-396.72784	1219.51282	-831.95715				-212.88771	1268.88184	-690.98474	-87.51553	918.01508	-1003.10925	-367.16736	940.53540	-907.53528	-281.74503	944.90735	-1238.38293	-38.78134	486.40097	-964.85223	-406.36426	477.27463	-938.80847	-66.74195	112.27489	-1150.33264	-330.82367	70.11872	-1040.28503	
268	2.670				-80.60925	1493.06384	-1147.97534				-40.70541	1289.22485	-918.60944	-357.41718	1558.85046	-873.50256	-331.52542	1497.82800	-1167.76086										-394.65820	1222.79028	-830.57068				-206.42566	1269.02954	-690.05450	-87.49715	918.01465	-1003.10297	-365.76004	941.45575	-906.00537	-283.58466	944.88214	-1236.56934	-41.24942	486.07712	-964.28912	-406.22641	476.95166	-937.35626	-62.63647	112.70226	-1130.59424	-330.81241	70.10458	-1040.28076	
269	2.680				-80.59831	1492.93579	-1146.82690				-39.99657	1290.22156	-915.32001	-355.87051	1559.30701	-871.30853	-331.67877	1498.35278	-1165.05054										-391.66101	1224.34082	-827.85736				-199.49139	1268.93530	-688.11151	-87.30624	918.11047	-1002.88147	-364.58252	942.18298	-903.46570	-285.72256	945.41412	-1235.84937	-43.58963	486.10983	-963.53864	-405.70724	476.47113	-936.15656	-59.63873	108.39700	-1123.11975	-330.87781	70.12550	-1040.29480	
270	2.690				-80.37509	1493.00696	-1145.29761				-39.28784	1291.21973	-912.04425	-354.28149	1559.33472	-868.95886	-331.88602	1498.29626	-1162.19519										-386.16653	1224.34338	-825.20044				-192.41206	1269.82666	-688.79944	-86.89632	918.28693	-1002.88452	-363.83920	942.57336	-901.76312	-287.89856	945.44849	-1234.11255	-44.79256	485.56458	-962.63458	-405.03427	476.82153	-934.94470	-56.73581	106.10029	-1110.18665	-330.95795	70.14311	-1040.31055	
271	2.700				-80.25173	1492.87744	-1144.14832				-38.80470	1291.79138	-908.80853				-331.98679	1498.58984	-1159.65393										-380.76233	1224.67554	-821.93420	-5.32737	1209.73218	-1191.38525	-186.61768	1270.31592	-687.98376	-86.68238	918.30548	-1002.68256	-362.89700	942.87366	-900.06250	-289.94504	945.72552	-1232.41003	-46.09207	486.11871	-961.27521	-404.61777	476.93857	-933.49530	-56.07795	102.56181	-1099.69373	-331.01245	70.16660	-1040.32324	
272	2.710				-79.97550	1492.89624	-1142.73059				-36.30231	1291.86609	-905.69977	-350.94839	1560.00659	-863.40656	-331.94925	1499.14978	-1157.28882										-378.53214	1225.50610	-819.60565	-6.12473	1210.29541	-1192.36816	-180.86389	1270.35193	-687.94037	-86.23966	918.16443	-1002.46802	-361.98947	942.78290	-898.57056	-291.82370	945.86578	-1229.74646	-47.03380	486.44904	-960.46960	-404.41534	476.95636	-933.22107	-53.38318	102.59879	-1086.48047	-331.06320	70.21465	-1040.33997	
273	2.720				-79.72030	1492.86719	-1141.49268				-33.88790	1292.15662	-901.74805	-349.35126	1560.45374	-860.62567	-331.89673	1499.50769	-1155.02454										-373.36575	1226.76953	-817.73499	-6.82213	1210.17700	-1191.42822	-174.94717	1270.62561	-687.61127	-85.93228	918.19775	-1002.22070	-360.00098	943.47955	-896.00519	-293.88327	946.46185	-1229.01721	-49.96643	486.02774	-959.80988	-404.21249	477.32544	-931.55859	-51.93738	99.87363	-1074.76453	-331.05746	70.20184	-1040.33667	
274	2.730				-79.34466	1493.51233	-1140.75623				-31.54664	1292.90015	-898.89911				-331.75400	1499.65100	-1152.12891										-369.27863	1226.67310	-815.60620	-6.91788	1210.23596	-1191.13623	-169.30466	1270.59753	-687.08350	-85.54886	918.53345	-1001.59241	-358.03052	943.65753	-894.82153	-295.39618	947.09070	-1226.65417	-50.67864	486.13492	-958.84314	-403.34705	477.47531	-930.01508	-51.17759	97.78848	-1062.99731	-331.05951	70.20350	-1040.33728	
275	2.740				-78.94281	1494.35986	-1140.54065				-31.06735	1293.47534	-895.70709				-331.43628	1500.26331	-1150.13721										-364.70618	1225.85754	-813.17230	-6.92927	1210.31873	-1190.76404	-164.54761	1270.61279	-687.11017	-85.04453	918.59717	-1001.20862	-356.23053	943.96863	-893.22266	-296.90054	947.05414	-1224.09399	-53.38086	485.36917	-958.70679	-402.50909	477.62271	-928.24316	-48.93587	97.05012	-1054.38306	-331.06866	70.21439	-1040.34070	
276	2.750				-78.38380	1494.45898	-1138.95410				-30.41822	1294.43701	-893.09515				-331.08096	1500.31421	-1147.34082										-361.11154	1226.66565	-811.48743	-6.85102	1210.44116	-1190.24304	-159.00191	1270.21399	-687.10205	-84.26455	918.60693	-1000.89783	-355.04160	944.29266	-891.87689	-298.31079	947.50073	-1223.15332	-55.30379	484.90088	-959.01593	-401.74451	477.37857	-927.43500	-48.19869	94.91770	-1043.70020	-331.67896	70.97227	-1039.88757	
277	2.760				-77.88998	1494.29236	-1137.75830				-28.09331	1294.19788	-890.05511				-330.52328	1500.68274	-1144.76025										-357.46552	1226.39063	-809.04346	-6.69524	1210.56494	-1189.74036	-153.34978	1270.18237	-687.03644	-83.10473	918.90625	-1000.21936	-353.38416	944.63635	-890.32886	-299.00027	947.98389	-1220.59045	-57.30449	484.92261	-958.65576	-401.73694	477.65173	-926.00848	-47.55720	93.21739	-1035.64258	-331.68756	70.99300	-1039.89270	
278	2.770				-77.28003	1494.27490	-1136.29883				-25.79106	1294.42200	-887.33105	-341.96719	1561.03564	-848.87091	-329.93283	1500.96594	-1141.99255										-353.93909	1226.88647	-806.83929	-6.48161	1210.71375	-1189.14392	-147.46849	1270.10522	-686.23322	-81.62774	918.96198	-999.40906	-350.80038	944.81854	-888.38489	-299.82468	947.63873	-1218.26038	-58.30964	484.87589	-957.74219	-401.48584	477.90247	-925.12567	-46.08502	93.85843	-1025.82532	-331.00473	70.35249	-1039.87366	
279	2.780				-76.37722	1494.12378	-1134.09998				-23.39750	1294.39233	-884.05829				-329.26184	1501.05835	-1139.37683										-350.67984	1227.19800	-804.53204	-6.22117	1210.86475	-1188.55249	-143.41849	1270.36084	-685.71942	-81.79285	918.29230	-997.77136	-348.59579	944.92389	-887.08453	-300.36472	948.39929	-1217.15442	-60.24784	484.83197	-956.70038	-401.55890	477.55804	-924.00696	-47.99909	90.95341	-1015.72229	-330.99274	70.35916	-1039.87305	
280	2.790				-75.59480	1494.53870	-1133.20496				-22.79527	1295.24731	-881.22858	-338.49252	1561.13245	-843.95880	-328.51770	1501.51819	-1137.54395										-346.71136	1226.83093	-802.77802	-5.30473	1211.24658	-1188.38623	-139.17131	1270.40686	-685.68951	-80.38664	918.45331	-997.06055	-347.60663	945.13696	-885.61682	-300.48788	948.73108	-1214.53918	-60.91324	484.92087	-956.23541	-401.58862	477.23599	-922.99945	-47.82664	88.58899	-1006.76270	-331.01196	70.37572	-1039.87903	
281	2.800				-74.52914	1494.95996	-1131.41589				-21.52787	1295.48706	-878.09790	-336.62515	1561.02649	-841.00922	-327.65131	1501.39722	-1134.69910										-343.80341	1227.33167	-800.34100	-4.88897	1211.46277	-1187.55298	-134.94868	1270.42114	-685.44482	-80.27665	918.18726	-995.45752	-345.57230	945.51349	-883.84271	-300.65527	948.50818	-1211.99622	-61.64463	485.29501	-955.81238	-401.55792	476.97855	-922.31970	-48.07793	88.49980	-999.85999	-330.95499	70.34441	-1039.86438	
282	2.810				-73.78961	1495.05957	-1130.76416				-18.76586	1295.24902	-875.30823	-335.08832	1561.35571	-839.04755	-326.69922	1501.88037	-1132.76086										-341.16638	1227.13855	-798.80939	-3.78225	1211.15186	-1185.54590	-130.72055	1270.19031	-684.86475	-80.11012	918.04877	-994.65662	-343.65900	945.75458	-882.58734	-300.95157	949.20294	-1211.04236	-62.78114	485.45224	-954.21771	-401.59073	476.47180	-921.44556	-49.54322	86.63406	-993.25684	-331.57562	71.10589	-1039.34790	
283	2.820				-72.57736	1494.91467	-1128.53076				-16.82567	1295.18518	-872.58514				-325.64328	1502.03784	-1130.36548										-337.89703	1227.06763	-797.08521	-3.21901	1211.38281	-1184.69495	-127.89394	1269.61621	-684.23676	-78.98890	918.14850	-993.58557	-341.85837	945.50372	-880.39783	-300.89505	948.88397	-1208.35791	-63.06884	485.38818	-953.85516	-401.59219	476.32581	-920.87054	-49.98808	85.97045	-986.39301	-330.72891	70.68392	-1039.63806	
284	2.830	-158.88661	1496.67224	-803.58423	-71.45460	1494.96777	-1127.45435				-14.99068	1294.77612	-869.37256				-324.46155	1502.11389	-1127.93750										-335.97488	1227.14807	-795.29144	-2.25348	1211.84387	-1184.68445	-124.46371	1269.35107	-683.21771	-77.73444	917.99677	-992.85358	-340.56638	945.90863	-879.05109	-300.78836	949.41254	-1207.31616	-62.59312	485.75394	-951.74023	-401.94708	476.22794	-920.31342	-50.93227	85.70895	-980.97076	-330.71976	70.79056	-1039.16162	
285	2.840	-156.42245	1496.29529	-800.84790	-69.96214	1495.29016	-1125.32166				-14.04107	1295.63550	-867.17053				-323.16498	1502.32861	-1125.56299										-332.66663	1226.95422	-793.38135	-0.69919	1211.53284	-1182.31750	-121.83807	1269.49048	-681.98883	-76.69686	917.45947	-990.85870	-339.07071	946.36182	-877.10034	-300.25290	949.65228	-1205.23499	-63.12054	485.59598	-950.14130	-401.48105	476.49554	-918.64325	-53.28568	84.53468	-976.22437	-330.63095	70.66376	-1039.61914	
286	2.850	-156.17090	1496.53125	-799.46918	-68.61453	1495.49841	-1124.17236				-11.81002	1295.83337	-864.73718				-321.67050	1502.65125	-1123.29370										-330.32114	1227.27881	-791.56738	0.06080	1211.79980	-1181.37207	-119.31730	1269.06348	-680.43506	-75.77558	917.73083	-989.08356	-336.48499	945.82660	-875.19696	-299.63757	949.84369	-1203.69971	-63.07862	484.44324	-948.48132	-400.94000	476.73813	-917.14008	-55.67015	82.64621	-972.65009	-330.66565	70.78413	-1039.15198	
287	2.860	-154.45645	1496.09741	-797.44507	-67.00279	1495.07092	-1121.38000				-9.20571	1294.90503	-861.52545				-320.29230	1502.25244	-1121.00110										-329.39932	1226.65918	-789.42017	0.98059	1212.06018	-1180.51050	-117.40550	1268.05200	-678.76685	-74.81439	917.87683	-986.97443	-335.00711	945.34039	-874.39001	-298.84177	949.77246	-1201.65417	-62.42108	484.27780	-947.35620	-400.46912	476.06613	-916.08453	-57.30140	81.03540	-970.41290	-330.38901	70.90321	-1039.24500	
